<?xml version="1.0" encoding="utf-8"?>
<!-- Generator: Adobe Illustrator 21.0.2, SVG Export Plug-In . SVG Version: 6.00 Build 0)  -->
<svg version="1.1" xmlns="http://www.w3.org/2000/svg" xmlns:xlink="http://www.w3.org/1999/xlink" x="0px" y="0px" width="24px"
	 height="24px" viewBox="0 0 24 24" enable-background="new 0 0 24 24" xml:space="preserve">
<g id="Black">
	<g>
		
			<rect x="11.732" y="2.232" transform="matrix(0.7071 -0.7071 0.7071 0.7071 1.1261 10.7184)" fill="none" stroke="#f4f4f4" stroke-linecap="round" stroke-linejoin="round" stroke-miterlimit="10" width="3.536" height="3.536"/>
		
			<rect x="17.232" y="15.232" transform="matrix(0.7071 -0.7071 0.7071 0.7071 -6.4557 18.4158)" fill="none" stroke="#f4f4f4" stroke-linecap="round" stroke-linejoin="round" stroke-miterlimit="10" width="3.536" height="3.536"/>
		
			<rect x="17.379" y="6.879" transform="matrix(0.7071 -0.7071 0.7071 0.7071 -0.6521 16.4257)" fill="none" stroke="#f4f4f4" stroke-linecap="round" stroke-linejoin="round" stroke-miterlimit="10" width="4.243" height="4.243"/>
		
			<rect x="5.086" y="3.086" transform="matrix(0.7071 -0.7072 0.7072 0.7071 -1.278 5.9149)" fill="none" stroke="#f4f4f4" stroke-linecap="round" stroke-linejoin="round" stroke-miterlimit="10" width="2.828" height="2.828"/>
		
			<rect x="12.586" y="20.086" transform="matrix(0.7071 -0.7072 0.7072 0.7071 -11.1026 16.1987)" fill="none" stroke="#f4f4f4" stroke-linecap="round" stroke-linejoin="round" stroke-miterlimit="10" width="2.828" height="2.828"/>
		
			<rect x="0.939" y="8.439" transform="matrix(0.707 -0.7072 0.7072 0.707 -6.1322 4.1976)" fill="none" stroke="#f4f4f4" stroke-linecap="round" stroke-linejoin="round" stroke-miterlimit="10" width="2.121" height="2.121"/>
		
			<rect x="0.939" y="15.439" transform="matrix(0.707 -0.7072 0.7072 0.707 -11.0825 6.2484)" fill="none" stroke="#f4f4f4" stroke-linecap="round" stroke-linejoin="round" stroke-miterlimit="10" width="2.121" height="2.121"/>
	</g>
</g>
<g id="Frames-24px">
	<rect fill="none" width="24" height="24"/>
</g>
</svg>
